<svg version="1.1" id="Layer_1" xmlns="http://www.w3.org/2000/svg" xmlns:xlink="http://www.w3.org/1999/xlink" x="0px" y="0px"
	 width="100%" viewBox="0 0 2000 1500" enable-background="new 0 0 2000 1500" xml:space="preserve">
<path fill="#0074D9" opacity="1.000000" stroke="none" 
	d="
M1358.000000,1501.000000 
	C905.333496,1501.000000 453.166931,1501.000000 1.000303,1501.000000 
	C1.000202,1001.000305 1.000202,501.000580 1.000101,1.000639 
	C667.666199,1.000426 1334.332397,1.000426 2000.998901,1.000213 
	C2000.999268,500.999359 2000.999268,1000.998718 2000.999634,1500.999023 
	C1786.833374,1501.000000 1572.666626,1501.000000 1358.000000,1501.000000 
M877.500244,285.664154 
	C852.838440,285.719543 828.162415,285.269958 803.518738,285.966766 
	C776.775085,286.722961 754.111633,309.279816 752.933228,335.983093 
	C752.250854,351.446259 752.788452,366.964478 752.845764,382.457642 
	C752.853149,384.441315 753.136719,386.451508 753.528015,388.402100 
	C758.815613,414.758881 780.733154,432.729431 808.046936,432.846466 
	C838.209717,432.975739 868.373718,432.820923 898.536194,432.981873 
	C900.959045,432.994781 903.774170,433.955048 905.725037,435.397400 
	C915.366211,442.525116 924.577332,450.246063 934.351990,457.176941 
	C939.511963,460.835754 941.369385,464.424896 941.285034,471.217682 
	C940.720215,516.705078 940.850891,562.203247 941.050537,607.696594 
	C941.105469,620.219910 944.685425,632.006287 951.290710,642.747253 
	C972.533081,677.289978 1024.880737,686.476196 1058.977539,661.547791 
	C1078.204956,647.490662 1086.712646,627.860352 1086.890137,604.585144 
	C1087.188965,565.425110 1086.665405,526.257507 1087.124756,487.100525 
	C1087.360596,467.004272 1084.999023,447.947113 1072.080811,431.277069 
	C1080.427490,424.813232 1088.565063,418.754608 1096.405151,412.332855 
	C1100.083008,409.320404 1103.813843,408.054291 1108.621704,408.081024 
	C1139.116577,408.250763 1169.618408,408.452209 1200.107788,407.985107 
	C1225.392578,407.597748 1248.286011,387.101532 1250.855469,362.046204 
	C1252.344727,347.522980 1251.828491,332.773010 1251.849854,318.124573 
	C1251.898682,284.437408 1228.363281,261.050354 1194.569214,261.005920 
	C1167.572266,260.970428 1140.575195,260.982208 1113.578247,261.002930 
	C1079.460938,261.029083 1056.053833,284.336456 1056.020996,318.334808 
	C1055.991821,348.664734 1056.014648,378.994720 1056.014526,409.324677 
	C1056.014404,411.086151 1056.014526,412.847626 1056.014526,415.377899 
	C1037.198364,403.216431 1017.516968,399.074554 996.365540,404.372253 
	C975.303040,409.647675 959.705017,422.314484 948.677551,441.125671 
	C948.226257,439.133881 948.228027,437.384247 948.226074,435.634644 
	C948.188904,402.972321 948.481995,370.305145 948.002441,337.649323 
	C947.657898,314.190216 931.069031,293.215729 908.244080,287.886932 
	C898.677856,285.653625 888.435364,286.317444 877.500244,285.664154 
M634.013550,1172.440552 
	C653.155090,1175.198486 672.251099,1174.941895 691.138245,1170.729614 
	C727.468262,1162.627075 746.816223,1142.524170 750.487549,1108.639404 
	C752.415833,1090.842041 749.596313,1074.045044 736.669983,1060.297729 
	C728.985046,1052.124634 719.580994,1046.364624 709.399902,1042.176758 
	C690.648804,1034.463501 671.465454,1027.790649 652.792786,1019.901917 
	C644.476685,1016.388611 635.972168,1012.098633 629.289490,1006.195679 
	C615.326599,993.861511 620.877319,972.303894 638.896362,968.117249 
	C646.836121,966.272461 655.501831,965.778992 663.593262,966.737366 
	C679.337952,968.602234 687.271179,977.735657 688.958008,993.481140 
	C689.045410,994.296448 689.153992,995.109497 689.260193,995.985901 
	C706.411316,995.985901 723.411987,995.985901 740.801392,995.985901 
	C740.145325,991.046082 739.737915,986.577759 738.937439,982.180969 
	C734.212769,956.229370 721.818115,935.793396 695.822449,926.808777 
	C666.781494,916.771606 637.434204,917.626648 608.777405,928.578064 
	C591.591431,935.145874 578.281738,946.697449 572.705872,964.876953 
	C563.340942,995.410522 569.703735,1028.109985 601.473328,1048.193726 
	C617.186523,1058.127075 634.381165,1064.754150 651.710815,1071.207397 
	C663.055603,1075.431885 674.319458,1080.066284 685.111755,1085.521606 
	C693.866516,1089.947021 697.940674,1097.844849 696.553040,1107.976196 
	C695.142090,1118.277588 688.536987,1123.712158 679.051270,1126.088135 
	C665.059814,1129.592651 650.943359,1129.617310 637.065247,1125.772217 
	C622.954895,1121.862671 615.037781,1112.134399 612.923950,1097.673340 
	C612.566895,1095.230835 612.265320,1092.780273 611.940857,1090.354004 
	C594.451233,1090.354004 577.219116,1090.354004 559.728943,1090.354004 
	C559.089783,1108.043823 561.859985,1124.527466 572.241943,1138.986816 
	C587.189514,1159.804932 608.936340,1168.338867 634.013550,1172.440552 
M839.569153,1155.899658 
	C845.959351,1163.582520 854.112976,1168.515991 863.709961,1171.005981 
	C896.161743,1179.425903 927.517639,1163.408325 941.885498,1131.060547 
	C951.396179,1109.647949 953.136475,1087.026001 951.603333,1064.038086 
	C950.418945,1046.279053 946.546387,1029.156006 937.412720,1013.578186 
	C923.383118,989.650085 899.993713,978.432800 872.763611,983.123779 
	C853.309875,986.475098 842.101746,999.203796 836.012573,1017.213745 
	C835.288818,1019.354187 834.541077,1021.486511 833.804565,1023.622620 
	C833.312744,1023.542542 832.820984,1023.462402 832.329224,1023.382263 
	C832.329224,1010.968567 832.329224,998.554810 832.329224,986.022461 
	C814.691833,986.022461 797.916321,986.022461 780.978149,986.022461 
	C780.978149,1070.414551 780.978149,1154.600464 780.978149,1238.841309 
	C798.414612,1238.841309 815.511597,1238.841309 832.288513,1238.841309 
	C832.288513,1207.141724 832.288513,1175.680664 832.288513,1144.272583 
	C834.511841,1147.873901 836.817078,1151.607910 839.569153,1155.899658 
M1250.278564,1170.877197 
	C1252.627441,1170.877197 1254.976196,1170.877197 1258.530640,1170.877197 
	C1232.913208,1136.088623 1208.166992,1102.483276 1183.280884,1068.687866 
	C1205.645996,1041.746704 1228.507690,1014.207214 1252.076294,985.816345 
	C1230.943359,985.816345 1211.287598,985.912109 1191.634399,985.728760 
	C1188.052979,985.695374 1185.992188,986.786621 1184.004028,989.786987 
	C1167.728516,1014.347900 1151.267090,1038.785400 1134.847656,1063.250854 
	C1133.912720,1064.643921 1132.852051,1065.952515 1131.616943,1067.613770 
	C1136.542236,1013.444092 1132.652710,959.857483 1134.298706,906.253601 
	C1116.680786,906.253601 1099.929688,906.253601 1083.131104,906.253601 
	C1083.131104,994.520020 1083.131104,1082.530762 1083.131104,1170.536377 
	C1100.261841,1170.536377 1116.993530,1170.536377 1134.023315,1170.536377 
	C1134.023315,1159.385864 1134.023315,1148.573608 1134.023315,1137.761230 
	C1134.023315,1126.764038 1134.359131,1115.753540 1133.927124,1104.773315 
	C1133.509277,1094.154663 1132.300781,1083.567017 1131.341919,1071.763672 
	C1132.991455,1074.274536 1134.004761,1075.760010 1134.961182,1077.281128 
	C1153.742310,1107.152344 1172.551636,1137.006226 1191.236450,1166.937622 
	C1193.009766,1169.778198 1194.861328,1171.011841 1198.351807,1170.969849 
	C1215.345093,1170.764648 1232.342041,1170.877075 1250.278564,1170.877197 
M1093.758301,650.168701 
	C1093.484497,650.586426 1093.218506,651.009583 1092.935669,651.421143 
	C1070.000244,684.779663 1038.417236,699.575073 998.312927,693.668823 
	C961.040161,688.179626 931.286926,659.308472 922.595459,621.762085 
	C921.077087,615.202881 920.591797,608.404480 919.648682,601.850830 
	C906.388245,601.850830 893.334351,601.850830 879.210999,601.850830 
	C885.669617,674.094299 923.686401,717.933838 993.578247,734.613953 
	C993.578247,746.852722 993.578247,759.281311 993.578247,772.120728 
	C991.820435,772.120728 990.350220,772.120605 988.880005,772.120789 
	C971.381592,772.122864 953.882812,772.054443 936.385010,772.154968 
	C926.651672,772.210938 919.852234,776.874817 917.066345,785.095337 
	C913.005554,797.077759 919.422119,812.504822 936.705017,812.424133 
	C988.199097,812.183594 1039.695068,812.350220 1091.190308,812.299805 
	C1093.659058,812.297363 1096.226807,812.076843 1098.578003,811.381592 
	C1107.499023,808.743652 1113.013794,799.632935 1111.843384,789.871094 
	C1110.597290,779.477478 1103.424072,772.581177 1092.827271,772.224609 
	C1083.505005,771.910828 1074.164673,772.128723 1064.832397,772.122375 
	C1054.713135,772.115479 1044.593872,772.120789 1034.298950,772.120789 
	C1034.298950,759.102966 1034.298950,746.551636 1034.298950,734.047791 
	C1109.297607,722.462341 1150.290161,652.832886 1147.104370,601.798462 
	C1134.048218,601.798462 1120.989136,601.798462 1107.573486,601.798462 
	C1107.226074,619.092346 1102.926636,634.968872 1093.758301,650.168701 
M1434.842407,1114.349609 
	C1440.273682,1096.179443 1441.356812,1077.630981 1438.859131,1058.948120 
	C1434.971802,1029.869507 1422.734497,1005.887512 1395.644043,991.680115 
	C1380.328491,983.648132 1363.729858,981.580688 1346.696167,982.089844 
	C1308.041382,983.245361 1276.536133,1007.719116 1266.434814,1044.822021 
	C1260.681396,1065.954712 1260.955200,1087.300537 1265.711304,1108.616699 
	C1269.232544,1124.398804 1276.160156,1138.457642 1287.698242,1149.908936 
	C1304.930786,1167.011719 1326.413208,1173.052856 1350.056885,1173.232056 
	C1391.139404,1173.543213 1422.291382,1152.138550 1434.842407,1114.349609 
M986.218140,1004.500854 
	C986.218140,1059.867310 986.218140,1115.233887 986.218140,1170.499146 
	C1004.242371,1170.499146 1021.465088,1170.499146 1038.589111,1170.499146 
	C1038.589111,1108.764526 1038.589111,1047.411987 1038.589111,986.205444 
	C1021.007080,986.205444 1003.786621,986.205444 986.218140,986.205444 
	C986.218140,992.228882 986.218140,997.865295 986.218140,1004.500854 
M1032.017944,905.433533 
	C1031.475708,905.046875 1030.950806,904.632812 1030.388672,904.277710 
	C1017.740356,896.287170 1001.759521,897.546265 991.101868,907.366455 
	C980.539124,917.099182 977.693481,934.092712 984.406982,947.345703 
	C990.850403,960.065491 1005.384888,967.087891 1019.755310,963.747253 
	C1031.907959,960.922119 1040.188232,953.265198 1043.177246,941.025208 
	C1046.496216,927.434021 1043.890137,915.249390 1032.017944,905.433533 
z"/>
<path fill="#FEFFFF" opacity="1.000000" stroke="none" 
	d="
M878.000244,285.664124 
	C888.435364,286.317444 898.677856,285.653625 908.244080,287.886932 
	C931.069031,293.215729 947.657898,314.190216 948.002441,337.649323 
	C948.481995,370.305145 948.188904,402.972321 948.226074,435.634644 
	C948.228027,437.384247 948.226257,439.133881 948.677551,441.125671 
	C959.705017,422.314484 975.303040,409.647675 996.365540,404.372253 
	C1017.516968,399.074554 1037.198364,403.216431 1056.014526,415.377899 
	C1056.014526,412.847626 1056.014404,411.086151 1056.014526,409.324677 
	C1056.014648,378.994720 1055.991821,348.664734 1056.020996,318.334808 
	C1056.053833,284.336456 1079.460938,261.029083 1113.578247,261.002930 
	C1140.575195,260.982208 1167.572266,260.970428 1194.569214,261.005920 
	C1228.363281,261.050354 1251.898682,284.437408 1251.849854,318.124573 
	C1251.828491,332.773010 1252.344727,347.522980 1250.855469,362.046204 
	C1248.286011,387.101532 1225.392578,407.597748 1200.107788,407.985107 
	C1169.618408,408.452209 1139.116577,408.250763 1108.621704,408.081024 
	C1103.813843,408.054291 1100.083008,409.320404 1096.405151,412.332855 
	C1088.565063,418.754608 1080.427490,424.813232 1072.080811,431.277069 
	C1084.999023,447.947113 1087.360596,467.004272 1087.124756,487.100525 
	C1086.665405,526.257507 1087.188965,565.425110 1086.890137,604.585144 
	C1086.712646,627.860352 1078.204956,647.490662 1058.977539,661.547791 
	C1024.880737,686.476196 972.533081,677.289978 951.290710,642.747253 
	C944.685425,632.006287 941.105469,620.219910 941.050537,607.696594 
	C940.850891,562.203247 940.720215,516.705078 941.285034,471.217682 
	C941.369385,464.424896 939.511963,460.835754 934.351990,457.176941 
	C924.577332,450.246063 915.366211,442.525116 905.725037,435.397400 
	C903.774170,433.955048 900.959045,432.994781 898.536194,432.981873 
	C868.373718,432.820923 838.209717,432.975739 808.046936,432.846466 
	C780.733154,432.729431 758.815613,414.758881 753.528015,388.402100 
	C753.136719,386.451508 752.853149,384.441315 752.845764,382.457642 
	C752.788452,366.964478 752.250854,351.446259 752.933228,335.983093 
	C754.111633,309.279816 776.775085,286.722961 803.518738,285.966766 
	C828.162415,285.269958 852.838440,285.719543 878.000244,285.664124 
M806.838257,411.675903 
	C810.835754,411.675446 814.861450,411.946381 818.816467,411.536224 
	C820.324280,411.379883 822.380554,409.965698 822.964966,408.601349 
	C825.317200,403.109863 827.041443,397.350647 829.357239,391.841431 
	C829.880249,390.597046 831.834534,389.185791 833.152100,389.163574 
	C845.299316,388.958984 857.451294,389.042938 869.812500,389.042938 
	C872.277710,395.541199 874.629700,401.922913 877.152466,408.236389 
	C877.653625,409.490601 878.770447,411.409973 879.669983,411.447998 
	C886.199829,411.723999 892.746643,411.596313 899.875610,411.596313 
	C898.364441,407.764862 897.226013,404.841949 896.061035,401.929657 
	C884.703186,373.536530 873.377563,345.130310 861.882751,316.792725 
	C861.234558,315.194641 859.254333,313.150665 857.774353,313.048462 
	C851.654236,312.625885 845.487976,312.871246 839.208008,312.871246 
	C826.457703,345.727417 813.794800,378.358398 800.959778,411.432892 
	C803.050232,411.534760 804.495911,411.605225 806.838257,411.675903 
M1175.185913,341.675110 
	C1179.762451,336.640015 1184.953491,332.029022 1188.784058,326.479065 
	C1196.132324,315.832367 1194.809448,305.044189 1185.974609,295.571991 
	C1171.507568,280.061310 1143.065063,277.965820 1126.617920,291.317383 
	C1119.341064,297.224609 1115.021362,304.785217 1114.470093,314.724915 
	C1120.967651,315.554535 1127.165771,316.345886 1133.419800,317.144379 
	C1133.873535,315.811646 1134.191162,314.893250 1134.499146,313.971619 
	C1138.388184,302.328217 1147.248291,296.904480 1159.245850,299.104156 
	C1165.354004,300.224030 1170.017212,303.597565 1172.261108,309.551605 
	C1174.337036,315.060089 1171.425049,319.343018 1167.862549,322.973755 
	C1163.907715,327.004486 1159.620239,330.739471 1155.249512,334.325073 
	C1145.574341,342.262115 1142.479004,352.521729 1143.925415,364.777710 
	C1150.124023,364.777710 1156.190918,364.777710 1162.705933,364.777710 
	C1162.469116,357.914124 1163.302856,351.579407 1169.019165,347.085876 
	C1170.980225,345.544281 1172.773071,343.788635 1175.185913,341.675110 
M1143.557007,378.706604 
	C1143.557007,383.430145 1143.557007,388.153687 1143.557007,392.713379 
	C1150.409058,392.713379 1156.441895,392.713379 1162.411011,392.713379 
	C1162.411011,385.719452 1162.411011,379.159546 1162.411011,372.516632 
	C1156.036743,372.516632 1150.013550,372.516632 1143.557129,372.516632 
	C1143.557129,374.502686 1143.557129,376.138397 1143.557007,378.706604 
z"/>
<path fill="#FEFEFF" opacity="1.000000" stroke="none" 
	d="
M633.585327,1172.354004 
	C608.936340,1168.338867 587.189514,1159.804932 572.241943,1138.986816 
	C561.859985,1124.527466 559.089783,1108.043823 559.728943,1090.354004 
	C577.219116,1090.354004 594.451233,1090.354004 611.940857,1090.354004 
	C612.265320,1092.780273 612.566895,1095.230835 612.923950,1097.673340 
	C615.037781,1112.134399 622.954895,1121.862671 637.065247,1125.772217 
	C650.943359,1129.617310 665.059814,1129.592651 679.051270,1126.088135 
	C688.536987,1123.712158 695.142090,1118.277588 696.553040,1107.976196 
	C697.940674,1097.844849 693.866516,1089.947021 685.111755,1085.521606 
	C674.319458,1080.066284 663.055603,1075.431885 651.710815,1071.207397 
	C634.381165,1064.754150 617.186523,1058.127075 601.473328,1048.193726 
	C569.703735,1028.109985 563.340942,995.410522 572.705872,964.876953 
	C578.281738,946.697449 591.591431,935.145874 608.777405,928.578064 
	C637.434204,917.626648 666.781494,916.771606 695.822449,926.808777 
	C721.818115,935.793396 734.212769,956.229370 738.937439,982.180969 
	C739.737915,986.577759 740.145325,991.046082 740.801392,995.985901 
	C723.411987,995.985901 706.411316,995.985901 689.260193,995.985901 
	C689.153992,995.109497 689.045410,994.296448 688.958008,993.481140 
	C687.271179,977.735657 679.337952,968.602234 663.593262,966.737366 
	C655.501831,965.778992 646.836121,966.272461 638.896362,968.117249 
	C620.877319,972.303894 615.326599,993.861511 629.289490,1006.195679 
	C635.972168,1012.098633 644.476685,1016.388611 652.792786,1019.901917 
	C671.465454,1027.790649 690.648804,1034.463501 709.399902,1042.176758 
	C719.580994,1046.364624 728.985046,1052.124634 736.669983,1060.297729 
	C749.596313,1074.045044 752.415833,1090.842041 750.487549,1108.639404 
	C746.816223,1142.524170 727.468262,1162.627075 691.138245,1170.729614 
	C672.251099,1174.941895 653.155090,1175.198486 633.585327,1172.354004 
z"/>
<path fill="#FEFFFF" opacity="1.000000" stroke="none" 
	d="
M839.345764,1155.620850 
	C836.817078,1151.607910 834.511841,1147.873901 832.288513,1144.272583 
	C832.288513,1175.680664 832.288513,1207.141724 832.288513,1238.841309 
	C815.511597,1238.841309 798.414612,1238.841309 780.978149,1238.841309 
	C780.978149,1154.600464 780.978149,1070.414551 780.978149,986.022461 
	C797.916321,986.022461 814.691833,986.022461 832.329224,986.022461 
	C832.329224,998.554810 832.329224,1010.968567 832.329224,1023.382263 
	C832.820984,1023.462402 833.312744,1023.542542 833.804565,1023.622620 
	C834.541077,1021.486511 835.288818,1019.354187 836.012573,1017.213745 
	C842.101746,999.203796 853.309875,986.475098 872.763611,983.123779 
	C899.993713,978.432800 923.383118,989.650085 937.412720,1013.578186 
	C946.546387,1029.156006 950.418945,1046.279053 951.603333,1064.038086 
	C953.136475,1087.026001 951.396179,1109.647949 941.885498,1131.060547 
	C927.517639,1163.408325 896.161743,1179.425903 863.709961,1171.005981 
	C854.112976,1168.515991 845.959351,1163.582520 839.345764,1155.620850 
M893.194702,1111.604492 
	C900.831177,1093.253540 900.897766,1074.234985 897.014954,1055.250610 
	C891.324646,1027.428711 864.454651,1016.707886 840.488647,1032.160522 
	C835.541443,1035.350342 832.869812,1039.364380 832.973999,1045.705566 
	C833.296570,1065.336426 833.169678,1084.976562 833.060486,1104.612183 
	C833.002014,1115.131226 838.080200,1122.535767 847.162720,1126.797729 
	C860.293335,1132.959229 882.784790,1133.087158 893.194702,1111.604492 
M831.263184,1141.828003 
	C831.333740,1142.075684 831.404297,1142.323242 831.474792,1142.570923 
	C831.507324,1142.235474 831.539856,1141.899902 831.263184,1141.828003 
z"/>
<path fill="#FEFFFF" opacity="1.000000" stroke="none" 
	d="
M1249.808105,1170.877197 
	C1232.342041,1170.877075 1215.345093,1170.764648 1198.351807,1170.969849 
	C1194.861328,1171.011841 1193.009766,1169.778198 1191.236450,1166.937622 
	C1172.551636,1137.006226 1153.742310,1107.152344 1134.961182,1077.281128 
	C1134.004761,1075.760010 1132.991455,1074.274536 1131.341919,1071.763672 
	C1132.300781,1083.567017 1133.509277,1094.154663 1133.927124,1104.773315 
	C1134.359131,1115.753540 1134.023315,1126.764038 1134.023315,1137.761230 
	C1134.023315,1148.573608 1134.023315,1159.385864 1134.023315,1170.536377 
	C1116.993530,1170.536377 1100.261841,1170.536377 1083.131104,1170.536377 
	C1083.131104,1082.530762 1083.131104,994.520020 1083.131104,906.253601 
	C1099.929688,906.253601 1116.680786,906.253601 1134.298706,906.253601 
	C1132.652710,959.857483 1136.542236,1013.444092 1131.616943,1067.613770 
	C1132.852051,1065.952515 1133.912720,1064.643921 1134.847656,1063.250854 
	C1151.267090,1038.785400 1167.728516,1014.347900 1184.004028,989.786987 
	C1185.992188,986.786621 1188.052979,985.695374 1191.634399,985.728760 
	C1211.287598,985.912109 1230.943359,985.816345 1252.076294,985.816345 
	C1228.507690,1014.207214 1205.645996,1041.746704 1183.280884,1068.687866 
	C1208.166992,1102.483276 1232.913208,1136.088623 1258.530640,1170.877197 
	C1254.976196,1170.877197 1252.627441,1170.877197 1249.808105,1170.877197 
z"/>
<path fill="#FDFEFF" opacity="1.000000" stroke="none" 
	d="
M1093.928711,649.845581 
	C1102.926636,634.968872 1107.226074,619.092346 1107.573486,601.798462 
	C1120.989136,601.798462 1134.048218,601.798462 1147.104370,601.798462 
	C1150.290161,652.832886 1109.297607,722.462341 1034.298950,734.047791 
	C1034.298950,746.551636 1034.298950,759.102966 1034.298950,772.120789 
	C1044.593872,772.120789 1054.713135,772.115479 1064.832397,772.122375 
	C1074.164673,772.128723 1083.505005,771.910828 1092.827271,772.224609 
	C1103.424072,772.581177 1110.597290,779.477478 1111.843384,789.871094 
	C1113.013794,799.632935 1107.499023,808.743652 1098.578003,811.381592 
	C1096.226807,812.076843 1093.659058,812.297363 1091.190308,812.299805 
	C1039.695068,812.350220 988.199097,812.183594 936.705017,812.424133 
	C919.422119,812.504822 913.005554,797.077759 917.066345,785.095337 
	C919.852234,776.874817 926.651672,772.210938 936.385010,772.154968 
	C953.882812,772.054443 971.381592,772.122864 988.880005,772.120789 
	C990.350220,772.120605 991.820435,772.120728 993.578247,772.120728 
	C993.578247,759.281311 993.578247,746.852722 993.578247,734.613953 
	C923.686401,717.933838 885.669617,674.094299 879.210999,601.850830 
	C893.334351,601.850830 906.388245,601.850830 919.648682,601.850830 
	C920.591797,608.404480 921.077087,615.202881 922.595459,621.762085 
	C931.286926,659.308472 961.040161,688.179626 998.312927,693.668823 
	C1038.417236,699.575073 1070.000244,684.779663 1092.935669,651.421143 
	C1093.218506,651.009583 1093.484497,650.586426 1093.928711,649.845581 
z"/>
<path fill="#FEFEFF" opacity="1.000000" stroke="none" 
	d="
M1434.703125,1114.723389 
	C1422.291382,1152.138550 1391.139404,1173.543213 1350.056885,1173.232056 
	C1326.413208,1173.052856 1304.930786,1167.011719 1287.698242,1149.908936 
	C1276.160156,1138.457642 1269.232544,1124.398804 1265.711304,1108.616699 
	C1260.955200,1087.300537 1260.681396,1065.954712 1266.434814,1044.822021 
	C1276.536133,1007.719116 1308.041382,983.245361 1346.696167,982.089844 
	C1363.729858,981.580688 1380.328491,983.648132 1395.644043,991.680115 
	C1422.734497,1005.887512 1434.971802,1029.869507 1438.859131,1058.948120 
	C1441.356812,1077.630981 1440.273682,1096.179443 1434.703125,1114.723389 
M1316.924194,1098.486084 
	C1318.226196,1102.418457 1319.144287,1106.532227 1320.900513,1110.250122 
	C1326.739258,1122.610107 1340.098022,1130.529785 1353.182861,1129.763794 
	C1367.537231,1128.923584 1379.354980,1120.598511 1383.505981,1106.957397 
	C1389.200806,1088.242676 1389.481567,1069.154663 1383.829224,1050.363281 
	C1379.192261,1034.947510 1365.981689,1025.573364 1350.632690,1025.706299 
	C1335.158081,1025.840210 1322.717285,1035.356201 1318.173706,1051.167847 
	C1313.771973,1066.484985 1313.937500,1082.059692 1316.924194,1098.486084 
z"/>
<path fill="#FDFEFF" opacity="1.000000" stroke="none" 
	d="
M986.218140,1004.001282 
	C986.218140,997.865295 986.218140,992.228882 986.218140,986.205444 
	C1003.786621,986.205444 1021.007080,986.205444 1038.589111,986.205444 
	C1038.589111,1047.411987 1038.589111,1108.764526 1038.589111,1170.499146 
	C1021.465088,1170.499146 1004.242371,1170.499146 986.218140,1170.499146 
	C986.218140,1115.233887 986.218140,1059.867310 986.218140,1004.001282 
z"/>
<path fill="#FDFEFF" opacity="1.000000" stroke="none" 
	d="
M1032.293701,905.661865 
	C1043.890137,915.249390 1046.496216,927.434021 1043.177246,941.025208 
	C1040.188232,953.265198 1031.907959,960.922119 1019.755310,963.747253 
	C1005.384888,967.087891 990.850403,960.065491 984.406982,947.345703 
	C977.693481,934.092712 980.539124,917.099182 991.101868,907.366455 
	C1001.759521,897.546265 1017.740356,896.287170 1030.388672,904.277710 
	C1030.950806,904.632812 1031.475708,905.046875 1032.293701,905.661865 
z"/>
<path fill="#0476DA" opacity="1.000000" stroke="none" 
	d="
M806.389954,411.675781 
	C804.495911,411.605225 803.050232,411.534760 800.959778,411.432892 
	C813.794800,378.358398 826.457703,345.727417 839.208008,312.871246 
	C845.487976,312.871246 851.654236,312.625885 857.774353,313.048462 
	C859.254333,313.150665 861.234558,315.194641 861.882751,316.792725 
	C873.377563,345.130310 884.703186,373.536530 896.061035,401.929657 
	C897.226013,404.841949 898.364441,407.764862 899.875610,411.596313 
	C892.746643,411.596313 886.199829,411.723999 879.669983,411.447998 
	C878.770447,411.409973 877.653625,409.490601 877.152466,408.236389 
	C874.629700,401.922913 872.277710,395.541199 869.812500,389.042938 
	C857.451294,389.042938 845.299316,388.958984 833.152100,389.163574 
	C831.834534,389.185791 829.880249,390.597046 829.357239,391.841431 
	C827.041443,397.350647 825.317200,403.109863 822.964966,408.601349 
	C822.380554,409.965698 820.324280,411.379883 818.816467,411.536224 
	C814.861450,411.946381 810.835754,411.675446 806.389954,411.675781 
M843.743896,352.196167 
	C841.374634,358.677521 839.005310,365.158844 836.506958,371.993347 
	C845.708374,371.993347 854.210693,371.993347 863.235291,371.993347 
	C858.708618,359.973389 854.361572,348.430298 849.667542,335.965698 
	C847.508423,341.832642 845.738953,346.640747 843.743896,352.196167 
z"/>
<path fill="#0476DA" opacity="1.000000" stroke="none" 
	d="
M1174.914307,341.902954 
	C1172.773071,343.788635 1170.980225,345.544281 1169.019165,347.085876 
	C1163.302856,351.579407 1162.469116,357.914124 1162.705933,364.777710 
	C1156.190918,364.777710 1150.124023,364.777710 1143.925415,364.777710 
	C1142.479004,352.521729 1145.574341,342.262115 1155.249512,334.325073 
	C1159.620239,330.739471 1163.907715,327.004486 1167.862549,322.973755 
	C1171.425049,319.343018 1174.337036,315.060089 1172.261108,309.551605 
	C1170.017212,303.597565 1165.354004,300.224030 1159.245850,299.104156 
	C1147.248291,296.904480 1138.388184,302.328217 1134.499146,313.971619 
	C1134.191162,314.893250 1133.873535,315.811646 1133.419800,317.144379 
	C1127.165771,316.345886 1120.967651,315.554535 1114.470093,314.724915 
	C1115.021362,304.785217 1119.341064,297.224609 1126.617920,291.317383 
	C1143.065063,277.965820 1171.507568,280.061310 1185.974609,295.571991 
	C1194.809448,305.044189 1196.132324,315.832367 1188.784058,326.479065 
	C1184.953491,332.029022 1179.762451,336.640015 1174.914307,341.902954 
z"/>
<path fill="#0778DA" opacity="1.000000" stroke="none" 
	d="
M1143.557129,378.240356 
	C1143.557129,376.138397 1143.557129,374.502686 1143.557129,372.516632 
	C1150.013550,372.516632 1156.036743,372.516632 1162.411011,372.516632 
	C1162.411011,379.159546 1162.411011,385.719452 1162.411011,392.713379 
	C1156.441895,392.713379 1150.409058,392.713379 1143.557007,392.713379 
	C1143.557007,388.153687 1143.557007,383.430145 1143.557129,378.240356 
z"/>
<path fill="#0175D9" opacity="1.000000" stroke="none" 
	d="
M893.059937,1111.954346 
	C882.784790,1133.087158 860.293335,1132.959229 847.162720,1126.797729 
	C838.080200,1122.535767 833.002014,1115.131226 833.060486,1104.612183 
	C833.169678,1084.976562 833.296570,1065.336426 832.973999,1045.705566 
	C832.869812,1039.364380 835.541443,1035.350342 840.488647,1032.160522 
	C864.454651,1016.707886 891.324646,1027.428711 897.014954,1055.250610 
	C900.897766,1074.234985 900.831177,1093.253540 893.059937,1111.954346 
z"/>
<path fill="#0074D9" opacity="1.000000" stroke="none" 
	d="
M831.417847,1141.696289 
	C831.539856,1141.899902 831.507324,1142.235474 831.474792,1142.570923 
	C831.404297,1142.323242 831.333740,1142.075684 831.417847,1141.696289 
z"/>
<path fill="#0275D9" opacity="1.000000" stroke="none" 
	d="
M1316.840820,1098.071777 
	C1313.937500,1082.059692 1313.771973,1066.484985 1318.173706,1051.167847 
	C1322.717285,1035.356201 1335.158081,1025.840210 1350.632690,1025.706299 
	C1365.981689,1025.573364 1379.192261,1034.947510 1383.829224,1050.363281 
	C1389.481567,1069.154663 1389.200806,1088.242676 1383.505981,1106.957397 
	C1379.354980,1120.598511 1367.537231,1128.923584 1353.182861,1129.763794 
	C1340.098022,1130.529785 1326.739258,1122.610107 1320.900513,1110.250122 
	C1319.144287,1106.532227 1318.226196,1102.418457 1316.840820,1098.071777 
z"/>
<path fill="#FAFCFE" opacity="1.000000" stroke="none" 
	d="
M843.856689,351.822510 
	C845.738953,346.640747 847.508423,341.832642 849.667542,335.965698 
	C854.361572,348.430298 858.708618,359.973389 863.235291,371.993347 
	C854.210693,371.993347 845.708374,371.993347 836.506958,371.993347 
	C839.005310,365.158844 841.374634,358.677521 843.856689,351.822510 
z"/>
</svg>